<svg xmlns="http://www.w3.org/2000/svg" viewBox="0 0 900 600" role="img" aria-labelledby="t d">
  <title id="t">Cargo truck preparing to turn left</title><desc id="d">Driver view behind a long cargo truck signaling a left turn.</desc>
  <rect width="900" height="600" fill="#a7d9ec"/><path d="M0 240h900v360H0z" fill="#687178"/><path d="M0 245h235L90 600H0zm900 0H665l145 355h90z" fill="#d1cbbb"/><path d="M445 270v95m0 65v125" stroke="#fff" stroke-width="11" stroke-dasharray="42 30"/><path d="M680 260h190v95H680zM40 210h200v145H40z" fill="#e4ddc8" stroke="#6b7476" stroke-width="7"/>
  <g transform="translate(285 220)"><rect x="0" y="0" width="255" height="105" rx="7" fill="#b47c42" stroke="#293741" stroke-width="9"/><path d="M0 0h255l-40-45H30z" fill="#d4a85d" stroke="#293741" stroke-width="9"/><rect x="255" y="38" width="95" height="92" rx="8" fill="#405765" stroke="#293741" stroke-width="9"/><rect x="276" y="52" width="55" height="35" fill="#b8dce7"/><circle cx="58" cy="119" r="22" fill="#1f272d"/><circle cx="292" cy="130" r="22" fill="#1f272d"/><path d="M20 112h-55" stroke="#ffb20c" stroke-width="13"/><path d="M-35 112l22-18m-22 18l22 18" stroke="#ffb20c" stroke-width="9"/></g>
  <path d="M0 600l95-145h710l95 145" fill="#29485c"/><path d="M330 600q120-125 240 0" fill="#172e3d"/><circle cx="450" cy="550" r="74" fill="#263841" stroke="#101e27" stroke-width="14"/><text x="450" y="52" text-anchor="middle" fill="#173a58" font-family="Arial" font-size="27" font-weight="700">Long vehicle signaling left</text>
</svg>
