<svg xmlns="http://www.w3.org/2000/svg" viewBox="0 0 760 470" role="img" aria-labelledby="title desc">
  <title id="title">Figure 3 directional lane markings</title><desc id="desc">Four traffic lanes marked left turn, straight, straight, and right turn.</desc>
  <rect width="760" height="470" fill="#fafbfc"/><rect x="55" y="28" width="650" height="414" fill="#707070"/>
  <g stroke="#fff" stroke-width="13" stroke-dasharray="54 29"><path d="M217 28v414M380 28v414M543 28v414"/></g>
  <g fill="#fff"><path d="M137 360V185h-35l55-78 55 78h-35v175z" transform="rotate(-90 157 233) translate(-18 0)"/><path d="M340 360V185h-35l55-78 55 78h-35v175z"/><path d="M503 360V185h-35l55-78 55 78h-35v175z"/><path d="M583 360V185h-35l55-78 55 78h-35v175z" transform="rotate(90 603 233) translate(18 0)"/></g>
</svg>
