<svg xmlns="http://www.w3.org/2000/svg" viewBox="0 0 760 470" role="img" aria-labelledby="title desc"><title id="title">Figure 9 horn sounding zone</title><desc id="desc">A blue horn-sounding-zone sign with a two-headed supplementary arrow.</desc><rect width="760" height="470" fill="#fafbfc"/><circle cx="380" cy="175" r="135" fill="#fff" stroke="#222" stroke-width="4"/><circle cx="380" cy="175" r="121" fill="#073b99"/><g fill="#fff"><path d="M190 180l60-45v25h45v40h-45v25zM570 180l-60-45v25h-45v40h45v25zM300 150l90-55-18 48 88-42-25 65-80 35 16-43-71 37z"/></g><rect x="220" y="350" width="320" height="78" rx="8" fill="#fff" stroke="#222" stroke-width="4"/><path d="M265 389h230" stroke="#e31525" stroke-width="11"/><path d="M255 389l38-24v48zM505 389l-38-24v48z" fill="#e31525"/></svg>
